<svg width="510" height="171" viewBox="0 0 510 171" fill="none" xmlns="http://www.w3.org/2000/svg">
<rect width="510" height="171" rx="8" fill="#F3F3F3"/>
<path d="M29.7528 32.4596H27.554V31.4624C27.554 30.4908 27.9631 29.9795 28.9602 29.9795C29.3949 29.9795 29.6506 30.0817 29.804 30.1329L30.2386 28.8289C30.0085 28.7266 29.5483 28.5732 28.8068 28.5732C27.4006 28.5732 26.0455 29.417 26.0455 31.1045V32.4596H24.4602V33.738H26.0455V42.2778H27.554V33.738H29.7528V32.4596ZM38.9545 38.2636C38.9545 40.1045 37.5483 40.9482 36.4233 40.9482C35.1704 40.9482 34.2755 40.0278 34.2755 38.596V32.4596H32.767V38.6982C32.767 41.2039 34.0966 42.4056 35.9375 42.4056C37.4204 42.4056 38.392 41.613 38.8522 40.6158H38.9545V42.2778H40.463V32.4596H38.9545V38.2636ZM45.6345 36.3715C45.6345 34.6585 46.6956 33.6869 48.1402 33.6869C49.5401 33.6869 50.3902 34.6009 50.3902 36.1414V42.2778H51.8987V36.0391C51.8987 33.5335 50.5628 32.3317 48.5749 32.3317C47.0919 32.3317 46.1714 32.9965 45.7112 33.9937H45.5834V32.4596H44.126V42.2778H45.6345V36.3715ZM59.5439 42.4823C61.7172 42.4823 63.149 41.1528 63.4047 39.4141H61.8962C61.615 40.488 60.7201 41.1272 59.5439 41.1272C57.7542 41.1272 56.6036 39.6442 56.6036 37.3687C56.6036 35.1442 57.7797 33.6869 59.5439 33.6869C60.8735 33.6869 61.6661 34.505 61.8962 35.3999H63.4047C63.149 33.559 61.5894 32.3317 59.5184 32.3317C56.8593 32.3317 55.0951 34.4283 55.0951 37.4198C55.0951 40.3602 56.7826 42.4823 59.5439 42.4823ZM70.7799 32.4596H68.6833V30.1073H67.1747V32.4596H65.6918V33.738H67.1747V39.8744C67.1747 41.5874 68.5554 42.4056 69.8338 42.4056C70.3963 42.4056 70.7543 42.3033 70.9588 42.2266L70.652 40.8715C70.5242 40.8971 70.3196 40.9482 69.9873 40.9482C69.3225 40.9482 68.6833 40.7437 68.6833 39.4653V33.738H70.7799V32.4596ZM73.949 42.2778H75.4576V32.4596H73.949V42.2778ZM74.7161 30.8232C75.3042 30.8232 75.79 30.363 75.79 29.8005C75.79 29.238 75.3042 28.7778 74.7161 28.7778C74.128 28.7778 73.6422 29.238 73.6422 29.8005C73.6422 30.363 74.128 30.8232 74.7161 30.8232ZM83.1092 42.4823C85.7683 42.4823 87.558 40.4624 87.558 37.4198C87.558 34.3516 85.7683 32.3317 83.1092 32.3317C80.4501 32.3317 78.6603 34.3516 78.6603 37.4198C78.6603 40.4624 80.4501 42.4823 83.1092 42.4823ZM83.1092 41.1272C81.0893 41.1272 80.1688 39.3886 80.1688 37.4198C80.1688 35.4511 81.0893 33.6869 83.1092 33.6869C85.1291 33.6869 86.0495 35.4511 86.0495 37.4198C86.0495 39.3886 85.1291 41.1272 83.1092 41.1272ZM92.2693 36.3715C92.2693 34.6585 93.3304 33.6869 94.775 33.6869C96.1748 33.6869 97.025 34.6009 97.025 36.1414V42.2778H98.5335V36.0391C98.5335 33.5335 97.1976 32.3317 95.2096 32.3317C93.7267 32.3317 92.8062 32.9965 92.346 33.9937H92.2181V32.4596H90.7608V42.2778H92.2693V36.3715Z" fill="#381BCB"/>
<path d="M210.643 36.755C210.643 39.9766 211.512 42.6613 213.072 44.9369H214.401C213.174 43.2494 212.202 39.7977 212.202 36.755C212.202 33.7124 213.174 30.2607 214.401 28.5732H213.072C211.512 30.8488 210.643 33.5335 210.643 36.755ZM221.797 32.4596H219.7V30.1073H218.192V32.4596H216.709V33.738H218.192V39.8744C218.192 41.5874 219.573 42.4056 220.851 42.4056C221.414 42.4056 221.771 42.3033 221.976 42.2266L221.669 40.8715C221.541 40.8971 221.337 40.9482 221.004 40.9482C220.34 40.9482 219.7 40.7437 219.7 39.4653V33.738H221.797V32.4596ZM228.977 42.4823C230.972 42.4823 232.429 41.4852 232.889 40.0022L231.432 39.5931C231.048 40.6158 230.16 41.1272 228.977 41.1272C227.207 41.1272 225.986 39.983 225.915 37.88H233.043V37.2408C233.043 33.5846 230.869 32.3317 228.824 32.3317C226.165 32.3317 224.401 34.4283 224.401 37.4454C224.401 40.4624 226.139 42.4823 228.977 42.4823ZM225.915 36.5761C226.018 35.0484 227.098 33.6869 228.824 33.6869C230.46 33.6869 231.508 34.9141 231.508 36.5761H225.915ZM237.099 32.4596H235.36L238.479 37.3687L235.36 42.2778H237.099L239.451 38.4681L241.803 42.2778H243.542L240.371 37.3687L243.542 32.4596H241.803L239.451 36.4738L237.099 32.4596ZM250.864 32.4596H248.768V30.1073H247.259V32.4596H245.776V33.738H247.259V39.8744C247.259 41.5874 248.64 42.4056 249.918 42.4056C250.481 42.4056 250.839 42.3033 251.043 42.2266L250.736 40.8715C250.609 40.8971 250.404 40.9482 250.072 40.9482C249.407 40.9482 248.768 40.7437 248.768 39.4653V33.738H250.864V32.4596ZM257.255 36.755C257.255 33.5335 256.386 30.8488 254.826 28.5732H253.496C254.724 30.2607 255.695 33.7124 255.695 36.755C255.695 39.7977 254.724 43.2494 253.496 44.9369H254.826C256.386 42.6613 257.255 39.9766 257.255 36.755ZM265.98 44.9369V43.684C264.498 43.684 264.037 43.0065 264.037 41.5107V38.9539C264.037 37.912 263.711 37.1386 262.248 36.8509V36.6592C263.711 36.3715 264.037 35.5981 264.037 34.5562V31.9994C264.037 30.5036 264.498 29.8261 265.98 29.8261V28.5732C263.475 28.5732 262.657 29.6471 262.657 31.9994V34.0448C262.657 35.4447 262.164 35.988 260.739 35.988V37.5221C262.164 37.5221 262.657 38.0654 262.657 39.4653V41.5107C262.657 43.863 263.475 44.9369 265.98 44.9369ZM53.3472 64.4823C55.3415 64.4823 56.7989 63.4852 57.2591 62.0022L55.8017 61.5931C55.4182 62.6158 54.5297 63.1272 53.3472 63.1272C51.5766 63.1272 50.3557 61.983 50.2854 59.88H57.4125V59.2408C57.4125 55.5846 55.2392 54.3317 53.1938 54.3317C50.5347 54.3317 48.7705 56.4283 48.7705 59.4454C48.7705 62.4624 50.5091 64.4823 53.3472 64.4823ZM50.2854 58.5761C50.3876 57.0484 51.4679 55.6869 53.1938 55.6869C54.8301 55.6869 55.8784 56.9141 55.8784 58.5761H50.2854ZM64.5959 64.4823C66.7692 64.4823 68.201 63.1528 68.4567 61.4141H66.9482C66.6669 62.488 65.772 63.1272 64.5959 63.1272C62.8061 63.1272 61.6555 61.6442 61.6555 59.3687C61.6555 57.1442 62.8317 55.6869 64.5959 55.6869C65.9254 55.6869 66.718 56.505 66.9482 57.3999H68.4567C68.201 55.559 66.6413 54.3317 64.5703 54.3317C61.9112 54.3317 60.147 56.4283 60.147 59.4198C60.147 62.3602 61.8345 64.4823 64.5959 64.4823ZM73.0705 58.3715C73.0705 56.6585 74.1635 55.6869 75.6528 55.6869C77.0719 55.6869 77.9284 56.5817 77.9284 58.1414V64.2778H79.4369V58.0391C79.4369 55.5143 78.0946 54.3317 76.0875 54.3317C74.5406 54.3317 73.6585 54.9773 73.1983 55.9937H73.0705V51.1869H71.5619V64.2778H73.0705V58.3715ZM87.0853 64.4823C89.7444 64.4823 91.5342 62.4624 91.5342 59.4198C91.5342 56.3516 89.7444 54.3317 87.0853 54.3317C84.4262 54.3317 82.6365 56.3516 82.6365 59.4198C82.6365 62.4624 84.4262 64.4823 87.0853 64.4823ZM87.0853 63.1272C85.0654 63.1272 84.145 61.3886 84.145 59.4198C84.145 57.4511 85.0654 55.6869 87.0853 55.6869C89.1052 55.6869 90.0257 57.4511 90.0257 59.4198C90.0257 61.3886 89.1052 63.1272 87.0853 63.1272ZM104.969 54.4596H102.873V52.1073H101.364V54.4596H99.8812V55.738H101.364V61.8744C101.364 63.5874 102.745 64.4056 104.023 64.4056C104.586 64.4056 104.944 64.3033 105.148 64.2266L104.841 62.8715C104.714 62.8971 104.509 62.9482 104.177 62.9482C103.512 62.9482 102.873 62.7437 102.873 61.4653V55.738H104.969V54.4596ZM112.15 64.4823C114.144 64.4823 115.601 63.4852 116.061 62.0022L114.604 61.5931C114.221 62.6158 113.332 63.1272 112.15 63.1272C110.379 63.1272 109.158 61.983 109.088 59.88H116.215V59.2408C116.215 55.5846 114.042 54.3317 111.996 54.3317C109.337 54.3317 107.573 56.4283 107.573 59.4454C107.573 62.4624 109.311 64.4823 112.15 64.4823ZM109.088 58.5761C109.19 57.0484 110.27 55.6869 111.996 55.6869C113.632 55.6869 114.681 56.9141 114.681 58.5761H109.088ZM120.271 54.4596H118.532L121.652 59.3687L118.532 64.2778H120.271L122.623 60.4681L124.975 64.2778H126.714L123.544 59.3687L126.714 54.4596H124.975L122.623 58.4738L120.271 54.4596ZM134.037 54.4596H131.94V52.1073H130.431V54.4596H128.948V55.738H130.431V61.8744C130.431 63.5874 131.812 64.4056 133.09 64.4056C133.653 64.4056 134.011 64.3033 134.215 64.2266L133.909 62.8715C133.781 62.8971 133.576 62.9482 133.244 62.9482C132.579 62.9482 131.94 62.7437 131.94 61.4653V55.738H134.037V54.4596ZM145.367 46.9681H144.089V68.4965H145.367V46.9681ZM152.156 46.9681H150.877V68.4965H152.156V46.9681ZM288.385 62.488H286.748L286.672 63.2039C286.486 64.9362 286.122 66.662 285.956 67.4738H287.106C287.413 66.6045 288.065 64.6357 288.282 63.1783L288.385 62.488ZM287.464 57.0931C288.097 57.0931 288.615 56.5754 288.615 55.9425C288.615 55.3097 288.097 54.792 287.464 54.792C286.831 54.792 286.314 55.3097 286.314 55.9425C286.314 56.5754 286.831 57.0931 287.464 57.0931ZM24.6136 72.5732V73.8261C26.0966 73.8261 26.5568 74.5036 26.5568 75.9994V78.5562C26.5568 79.5981 26.8828 80.3715 28.3466 80.6592V80.8509C26.8828 81.1386 26.5568 81.912 26.5568 82.9539V85.5107C26.5568 87.0065 26.0966 87.684 24.6136 87.684V88.9369C27.1193 88.9369 27.9375 87.863 27.9375 85.5107V83.4653C27.9375 82.0654 28.4297 81.5221 29.8551 81.5221V79.988C28.4297 79.988 27.9375 79.4447 27.9375 78.0448V75.9994C27.9375 73.6471 27.1193 72.5732 24.6136 72.5732Z" fill="black" fill-opacity="0.75"/>
<path d="M108.21 42.2778H110.185V36.5697H116.712V42.2778H118.693V29.1869H116.712V34.8758H110.185V29.1869H108.21V42.2778ZM126.548 42.4759C128.689 42.4759 130.204 41.4212 130.638 39.8232L128.83 39.4972C128.484 40.4241 127.653 40.8971 126.567 40.8971C124.93 40.8971 123.831 39.836 123.78 37.944H130.76V37.2664C130.76 33.7188 128.638 32.3317 126.413 32.3317C123.678 32.3317 121.875 34.4156 121.875 37.4326C121.875 40.4816 123.652 42.4759 126.548 42.4759ZM123.786 36.5121C123.863 35.1187 124.873 33.9106 126.426 33.9106C127.909 33.9106 128.881 35.01 128.887 36.5121H123.786ZM135.692 29.1869H133.781V42.2778H135.692V29.1869ZM141.074 29.1869H139.163V42.2778H141.074V29.1869ZM148.681 42.4759C151.449 42.4759 153.258 40.4496 153.258 37.4134C153.258 34.358 151.449 32.3317 148.681 32.3317C145.913 32.3317 144.104 34.358 144.104 37.4134C144.104 40.4496 145.913 42.4759 148.681 42.4759ZM148.687 40.8715C146.878 40.8715 146.035 39.2927 146.035 37.407C146.035 35.5278 146.878 33.9298 148.687 33.9298C150.484 33.9298 151.327 35.5278 151.327 37.407C151.327 39.2927 150.484 40.8715 148.687 40.8715ZM158.094 42.2778H160.088L162.843 32.4724H162.945L165.7 42.2778H167.688L171.325 29.1869H169.241L166.697 39.331H166.576L163.923 29.1869H161.865L159.212 39.3246H159.091L156.54 29.1869H154.463L158.094 42.2778ZM177.042 42.4759C179.809 42.4759 181.618 40.4496 181.618 37.4134C181.618 34.358 179.809 32.3317 177.042 32.3317C174.274 32.3317 172.465 34.358 172.465 37.4134C172.465 40.4496 174.274 42.4759 177.042 42.4759ZM177.048 40.8715C175.239 40.8715 174.395 39.2927 174.395 37.407C174.395 35.5278 175.239 33.9298 177.048 33.9298C178.844 33.9298 179.688 35.5278 179.688 37.407C179.688 39.2927 178.844 40.8715 177.048 40.8715ZM184.652 42.2778H186.563V36.282C186.563 34.9972 187.554 34.0704 188.909 34.0704C189.305 34.0704 189.752 34.1407 189.906 34.1854V32.3573C189.714 32.3317 189.337 32.3126 189.094 32.3126C187.943 32.3126 186.959 32.9646 186.601 34.0192H186.499V32.4596H184.652V42.2778ZM194.371 29.1869H192.46V42.2778H194.371V29.1869ZM201.518 42.4695C203.307 42.4695 204.011 41.3765 204.356 40.7501H204.516V42.2778H206.382V29.1869H204.471V34.0512H204.356C204.011 33.444 203.359 32.3317 201.53 32.3317C199.159 32.3317 197.414 34.2046 197.414 37.3879C197.414 40.5647 199.133 42.4695 201.518 42.4695ZM201.94 40.8396C200.233 40.8396 199.344 39.3374 199.344 37.3687C199.344 35.4191 200.214 33.9553 201.94 33.9553C203.608 33.9553 204.503 35.3168 204.503 37.3687C204.503 39.4333 203.589 40.8396 201.94 40.8396Z" fill="#E10000" fill-opacity="0.75"/>
<path d="M164.012 51.1869H162.606V55.6869H164.012V51.1869ZM167.285 51.1869H165.878V55.6869H167.285V51.1869ZM171.072 64.2778H172.658V58.4227H179.638V64.2778H181.223V51.1869H179.638V57.0164H172.658V51.1869H171.072V64.2778ZM189.208 64.4823C191.203 64.4823 192.66 63.4852 193.12 62.0022L191.663 61.5931C191.28 62.6158 190.391 63.1272 189.208 63.1272C187.438 63.1272 186.217 61.983 186.147 59.88H193.274V59.2408C193.274 55.5846 191.101 54.3317 189.055 54.3317C186.396 54.3317 184.632 56.4283 184.632 59.4454C184.632 62.4624 186.37 64.4823 189.208 64.4823ZM186.147 58.5761C186.249 57.0484 187.329 55.6869 189.055 55.6869C190.691 55.6869 191.74 56.9141 191.74 58.5761H186.147ZM197.977 51.1869H196.469V64.2778H197.977V51.1869ZM203.149 51.1869H201.64V64.2778H203.149V51.1869ZM210.8 64.4823C213.459 64.4823 215.249 62.4624 215.249 59.4198C215.249 56.3516 213.459 54.3317 210.8 54.3317C208.141 54.3317 206.351 56.3516 206.351 59.4198C206.351 62.4624 208.141 64.4823 210.8 64.4823ZM210.8 63.1272C208.78 63.1272 207.86 61.3886 207.86 59.4198C207.86 57.4511 208.78 55.6869 210.8 55.6869C212.82 55.6869 213.741 57.4511 213.741 59.4198C213.741 61.3886 212.82 63.1272 210.8 63.1272ZM226.997 64.2778H228.633L231.522 53.846H231.625L234.514 64.2778H236.15L239.73 51.1869H238.119L235.383 61.8488H235.255L232.468 51.1869H230.678L227.892 61.8488H227.764L225.028 51.1869H223.417L226.997 64.2778ZM245.475 64.4823C248.134 64.4823 249.924 62.4624 249.924 59.4198C249.924 56.3516 248.134 54.3317 245.475 54.3317C242.816 54.3317 241.026 56.3516 241.026 59.4198C241.026 62.4624 242.816 64.4823 245.475 64.4823ZM245.475 63.1272C243.455 63.1272 242.534 61.3886 242.534 59.4198C242.534 57.4511 243.455 55.6869 245.475 55.6869C247.495 55.6869 248.415 57.4511 248.415 59.4198C248.415 61.3886 247.495 63.1272 245.475 63.1272ZM253.126 64.2778H254.635V58.0647C254.635 56.7352 255.683 55.7636 257.115 55.7636C257.518 55.7636 257.933 55.8403 258.035 55.8658V54.3317C257.863 54.319 257.467 54.3062 257.243 54.3062C256.067 54.3062 255.044 54.971 254.686 55.9425H254.584V54.4596H253.126V64.2778ZM262.232 51.1869H260.724V64.2778H262.232V51.1869ZM269.603 64.4823C271.495 64.4823 272.134 63.3062 272.466 62.7692H272.645V64.2778H274.103V51.1869H272.594V56.0192H272.466C272.134 55.5079 271.546 54.3317 269.628 54.3317C267.148 54.3317 265.435 56.3005 265.435 59.3942C265.435 62.5136 267.148 64.4823 269.603 64.4823ZM269.807 63.1272C267.915 63.1272 266.943 61.4653 266.943 59.3687C266.943 57.2977 267.889 55.6869 269.807 55.6869C271.648 55.6869 272.62 57.1698 272.62 59.3687C272.62 61.5931 271.622 63.1272 269.807 63.1272ZM279.279 51.1869H277.873V55.6869H279.279V51.1869ZM282.552 51.1869H281.145V55.6869H282.552V51.1869Z" fill="#009471"/>
</svg>
