<svg width="19" height="19" viewBox="0 0 19 19" fill="none" xmlns="http://www.w3.org/2000/svg">
<path d="M5.66666 13.3333H3.75C3.24167 13.3333 2.75416 13.1314 2.39471 12.772C2.03527 12.4125 1.83333 11.925 1.83333 11.4167V3.75C1.83333 3.24167 2.03527 2.75416 2.39471 2.39471C2.75416 2.03527 3.24167 1.83334 3.75 1.83334H11.4167C11.925 1.83334 12.4125 2.03527 12.772 2.39471C13.1314 2.75416 13.3333 3.24167 13.3333 3.75V5.66667L5.66666 13.3333ZM7.58333 17.1667H15.25C15.7583 17.1667 16.2458 16.9647 16.6053 16.6053C16.9647 16.2458 17.1667 15.7583 17.1667 15.25V7.58334C17.1667 7.075 16.9647 6.58749 16.6053 6.22805C16.2458 5.8686 15.7583 5.66667 15.25 5.66667H7.58333C7.075 5.66667 6.58749 5.8686 6.22804 6.22805C5.8686 6.58749 5.66666 7.075 5.66666 7.58334V15.25C5.66666 15.7583 5.8686 16.2458 6.22804 16.6053C6.58749 16.9647 7.075 17.1667 7.58333 17.1667Z" stroke="#535353" stroke-width="2" stroke-linecap="round" stroke-linejoin="round"/>
</svg>
