<svg width="20" height="20" viewBox="0 0 20 20" fill="none" xmlns="http://www.w3.org/2000/svg">
<path d="M16.364 16.364L3.63599 3.636M16.364 16.364C18.0518 14.6762 19 12.387 19 10C19 7.61304 18.0518 5.32384 16.364 3.636C14.6762 1.94816 12.387 0.999947 9.99999 0.999947C7.61303 0.999947 5.32383 1.94816 3.63599 3.636L16.364 16.364ZM16.364 16.364C14.6762 18.0518 12.387 19.0001 9.99999 19.0001C7.61303 19.0001 5.32383 18.0518 3.63599 16.364C1.94816 14.6762 0.999939 12.387 0.999939 10C0.999939 7.61304 1.94816 5.32384 3.63599 3.636L16.364 16.364Z" stroke="#969696" stroke-width="2" stroke-linecap="round" stroke-linejoin="round"/>
</svg>
