<svg width="22" height="22" viewBox="0 0 22 22" fill="none" xmlns="http://www.w3.org/2000/svg">
<path d="M6.33335 15.6667H4.00002C3.38118 15.6667 2.78769 15.4208 2.3501 14.9832C1.91252 14.5457 1.66669 13.9522 1.66669 13.3333V4C1.66669 3.38116 1.91252 2.78767 2.3501 2.35008C2.78769 1.9125 3.38118 1.66666 4.00002 1.66666H13.3334C13.9522 1.66666 14.5457 1.9125 14.9833 2.35008C15.4209 2.78767 15.6667 3.38116 15.6667 4V6.33333L6.33335 15.6667ZM8.66669 20.3333H18C18.6189 20.3333 19.2123 20.0875 19.6499 19.6499C20.0875 19.2123 20.3334 18.6188 20.3334 18V8.66666C20.3334 8.04782 20.0875 7.45433 19.6499 7.01675C19.2123 6.57916 18.6189 6.33333 18 6.33333H8.66669C8.04785 6.33333 7.45436 6.57916 7.01677 7.01675C6.57919 7.45433 6.33335 8.04782 6.33335 8.66666V18C6.33335 18.6188 6.57919 19.2123 7.01677 19.6499C7.45436 20.0875 8.04785 20.3333 8.66669 20.3333Z" stroke="white" stroke-width="2" stroke-linecap="round" stroke-linejoin="round"/>
</svg>
