<svg width="26" height="26" viewBox="0 0 26 26" fill="none" xmlns="http://www.w3.org/2000/svg">
<path d="M20.7755 9.38772V13.1836V9.38772ZM20.7755 13.1836V16.9796V13.1836ZM20.7755 13.1836H24.5714H20.7755ZM20.7755 13.1836H16.9796H20.7755ZM14.449 6.85711C14.449 8.19943 13.9157 9.48677 12.9666 10.4359C12.0174 11.3851 10.7301 11.9183 9.38775 11.9183C8.04543 11.9183 6.75809 11.3851 5.80892 10.4359C4.85976 9.48677 4.32653 8.19943 4.32653 6.85711C4.32653 5.51479 4.85976 4.22744 5.80892 3.27828C6.75809 2.32912 8.04543 1.79588 9.38775 1.79588C10.7301 1.79588 12.0174 2.32912 12.9666 3.27828C13.9157 4.22744 14.449 5.51479 14.449 6.85711V6.85711ZM1.79591 23.3061C1.79591 21.2926 2.59577 19.3616 4.01951 17.9378C5.44326 16.5141 7.37427 15.7143 9.38775 15.7143C11.4012 15.7143 13.3322 16.5141 14.756 17.9378C16.1797 19.3616 16.9796 21.2926 16.9796 23.3061V24.5714H1.79591V23.3061Z" stroke="#381BCB" stroke-width="2.53061" stroke-linecap="round" stroke-linejoin="round"/>
</svg>
