<svg width="39" height="35" viewBox="0 0 39 35" fill="none" xmlns="http://www.w3.org/2000/svg">
<path d="M10.2258 9.54839H29.2581H10.2258ZM10.2258 17.1613H17.8387H10.2258ZM19.7419 32.3871L12.129 24.7742H6.41937C5.40983 24.7742 4.44165 24.3732 3.7278 23.6593C3.01395 22.9455 2.61292 21.9773 2.61292 20.9677V5.74194C2.61292 4.7324 3.01395 3.76422 3.7278 3.05037C4.44165 2.33652 5.40983 1.93549 6.41937 1.93549H33.0645C34.0741 1.93549 35.0422 2.33652 35.7561 3.05037C36.4699 3.76422 36.871 4.7324 36.871 5.74194V20.9677C36.871 21.9773 36.4699 22.9455 35.7561 23.6593C35.0422 24.3732 34.0741 24.7742 33.0645 24.7742H27.3549L19.7419 32.3871Z" stroke="black" stroke-width="3.80645" stroke-linecap="round" stroke-linejoin="round"/>
</svg>
